<svg id="Capa_1" enable-background="new 0 0 512 512" height="512" viewBox="0 0 512 512" width="512" xmlns="http://www.w3.org/2000/svg"><g><path d="m3.384 297.732c-2.109-12.861-3.259-26.046-3.375-39.476-1.218-141.203 114.783-258.256 255.992-258.256 141.384 0 255.999 114.615 255.999 256 0 16.445-1.551 32.527-4.513 48.109-4.993 26.257-28.198 45.107-54.925 45.107h-388.176c-30.163 0-56.121-21.717-61.002-51.484z" fill="#2cb3cd"/><path d="m51.829 274.121c-1.704-10.395-2.634-21.051-2.728-31.906-.985-114.125 92.77-208.73 206.899-208.73 114.271 0 206.906 92.635 206.906 206.906 0 13.291-1.253 26.289-3.648 38.883-4.035 21.222-22.79 36.457-44.392 36.457h-313.733c-24.38 0-45.359-17.552-49.304-41.61z" fill="#44bfd7"/><path d="m81.23 279.363c-16.443 20.8-36.047 38.987-58.086 53.835-4.672 3.147-11.099.835-12.694-4.568-3.27-11.071-5.811-22.454-7.568-34.094 9.947-9.406 23.369-15.173 38.139-15.173z" fill="#3d4ec6"/><path d="m239.309 334.884v71.874c0 54.951-55.229 93.256-106.396 73.216-2.172-.851-3.997-1.689-5.405-2.508-56.467-32.832-99.229-86.64-117.617-150.753 3.951-26.79 27.036-47.351 54.924-47.351h118.973c30.664.001 55.521 24.859 55.521 55.522z" fill="#5766ce"/><path d="m170.938 274.008-35.362 60.596c-.772 1.323-2.683 1.323-3.455 0l-17.98-30.811c-.772-1.323-2.683-1.323-3.455 0l-17.98 30.811c-.772 1.323-2.683 1.323-3.455 0l-35.362-60.596c-.778-1.333.184-3.008 1.727-3.008h113.594c1.544 0 2.506 1.675 1.728 3.008z" fill="#fcf2b6"/><path d="m212.342 113.768v78.348h-199.875v-84.289c0-1.734 1.191-3.242 2.878-3.643l142.046-33.82c28.036-6.676 54.951 14.583 54.951 43.404z" fill="#ff9f22"/><path d="m44.986 180.219v7.932c0 10.951-8.878 19.829-19.829 19.829s-19.828-8.879-19.828-19.83v-7.932c0-10.951 8.878-19.829 19.829-19.829s19.828 8.879 19.828 19.83z" fill="#ffbeaa"/><path d="m17.226 176.253v15.863c0 6.487 3.115 12.245 7.93 15.863-10.95-.001-19.827-8.878-19.827-19.829v-7.931c0-10.951 8.877-19.828 19.827-19.829-4.815 3.618-7.93 9.376-7.93 15.863zm95.179-118.973c-48.185 0-87.247 39.062-87.247 87.247v31.726c0 39.936 26.832 73.605 63.452 83.963v27.079c0 13.141 10.653 23.795 23.795 23.795 13.141 0 23.795-10.653 23.795-23.795v-27.079c36.62-10.357 63.452-44.026 63.452-83.963v-31.726c0-48.185-39.062-87.247-87.247-87.247z" fill="#faa68e"/><path d="m199.652 144.527v31.726c0 40.286-27.304 74.194-64.417 84.229-7.157 1.935-14.709 1.935-21.866 0-37.112-10.035-64.417-43.943-64.417-84.229v-31.726c0-44.15 32.793-80.64 75.35-86.442 42.557 5.802 75.35 42.292 75.35 86.442z" fill="#ffbeaa"/><path d="m100.904 181.592c-2.323-2.324-2.323-6.09 0-8.413 2.323-2.322 6.09-2.322 8.413 0 .826.826 1.923 1.282 3.088 1.282s2.261-.455 3.088-1.282c2.323-2.322 6.09-2.322 8.413 0 2.323 2.324 2.323 6.09 0 8.413-3.073 3.073-7.158 4.766-11.5 4.766-4.344 0-8.428-1.693-11.502-4.766zm35.536 21.892c-2.323-2.322-6.09-2.322-8.413 0-8.615 8.615-22.63 8.615-31.245 0-2.323-2.322-6.09-2.322-8.413 0-2.323 2.324-2.323 6.09 0 8.413 6.626 6.626 15.331 9.939 24.035 9.939s17.409-3.313 24.035-9.939c2.324-2.324 2.324-6.09.001-8.413z" fill="#e09380"/><path d="m86.627 150.475c0 6.571-5.327 11.897-11.897 11.897-6.571 0-11.897-5.327-11.897-11.897 0-6.571 5.327-11.897 11.897-11.897s11.897 5.327 11.897 11.897zm63.452-11.897c-6.571 0-11.897 5.327-11.897 11.897 0 6.571 5.327 11.897 11.897 11.897 6.571 0 11.897-5.327 11.897-11.897.001-6.57-5.326-11.897-11.897-11.897z" fill="#4c2c21"/><path d="m88.61 144.527c0 3.285-2.663 5.949-5.949 5.949-3.285 0-5.949-2.663-5.949-5.949s2.663-5.949 5.949-5.949 5.949 2.663 5.949 5.949zm69.401-5.949c-3.285 0-5.949 2.663-5.949 5.949s2.663 5.949 5.949 5.949 5.949-2.663 5.949-5.949-2.664-5.949-5.949-5.949z" fill="#fff5f5"/><path d="m139.372 77.109c0 24.093-19.531 43.624-43.623 43.624h-71.385c-6.571 0-11.897-5.327-11.897-11.897 0-41.614 33.735-75.35 75.35-75.35h7.932c24.092-.001 43.623 19.53 43.623 43.623z" fill="#ff9f22"/><path d="m52.125 77.109c0-24.093 19.531-43.624 43.623-43.624h112.628c2.19 0 3.966 1.776 3.966 3.966 0 45.995-37.286 83.281-83.281 83.281h-33.313c-24.092 0-43.623-19.531-43.623-43.623z" fill="#ffb52d"/><path d="m498.533 115.129v138.853h-93.277v-142.768h89.363c2.161 0 3.914 1.753 3.914 3.915z" fill="#2b3894"/><path d="m346.362 111.214v142.768h-47.704v-140.204c0-1.416 1.148-2.564 2.564-2.564z" fill="#232e7a"/><path d="m374.801 285.708v-19.147c-36.62-10.357-63.452-44.026-63.452-83.963v-31.726c0-48.185 39.062-87.247 87.247-87.247 48.185 0 87.247 39.062 87.247 87.247v15.863c10.951 0 19.829 8.878 19.829 19.829v7.46c0 10.877-8.559 20.085-19.433 20.297-2.099.041-4.125-.244-6.031-.809-9.719 25.645-31.178 45.515-57.817 53.049v19.147h47.589c2.052 0 4.078.111 6.072.328 8.303.903 13.087 9.957 9.263 17.383-36.983 71.8-106.925 123.85-189.829 136.153v-98.343c0-30.663 24.858-55.521 55.521-55.521z" fill="#d47f6c"/><path d="m485.842 150.872v31.726c0 40.286-27.304 74.194-64.417 84.229-7.157 1.935-14.709 1.935-21.866 0-37.112-10.035-64.417-43.943-64.417-84.229v-31.726c0-44.15 32.793-80.64 75.35-86.442 42.557 5.802 75.35 42.292 75.35 86.442z" fill="#e09380"/><path d="m387.095 187.937c-2.323-2.324-2.323-6.09 0-8.413 2.323-2.322 6.09-2.322 8.413 0 .826.826 1.923 1.282 3.088 1.282s2.261-.455 3.088-1.282c2.323-2.322 6.09-2.322 8.413 0 2.323 2.324 2.323 6.09 0 8.413-3.073 3.073-7.158 4.766-11.5 4.766-4.344 0-8.429-1.692-11.502-4.766zm35.535 21.892c-2.323-2.322-6.09-2.322-8.413 0-8.615 8.615-22.63 8.615-31.245 0-2.323-2.322-6.09-2.322-8.413 0-2.323 2.324-2.323 6.09 0 8.413 6.626 6.626 15.331 9.939 24.035 9.939s17.409-3.313 24.035-9.939c2.325-2.324 2.325-6.09.001-8.413z" fill="#b2705b"/><path d="m372.818 156.821c0 6.571-5.327 11.897-11.897 11.897-6.571 0-11.897-5.327-11.897-11.897 0-6.571 5.327-11.897 11.897-11.897 6.57-.001 11.897 5.326 11.897 11.897zm63.452-11.898c-6.571 0-11.897 5.327-11.897 11.897 0 6.571 5.327 11.897 11.897 11.897 6.571 0 11.897-5.327 11.897-11.897s-5.326-11.897-11.897-11.897z" fill="#232e7a"/><path d="m374.801 150.872c0 3.285-2.663 5.949-5.949 5.949-3.285 0-5.949-2.663-5.949-5.949 0-3.285 2.663-5.949 5.949-5.949 3.285 0 5.949 2.664 5.949 5.949zm69.401-5.949c-3.285 0-5.949 2.663-5.949 5.949 0 3.285 2.663 5.949 5.949 5.949s5.949-2.663 5.949-5.949c-.001-3.285-2.664-5.949-5.949-5.949z" fill="#fff5f5"/><path d="m417.631 63.625c0 35.044-28.409 63.452-63.452 63.452h-43.624c-6.571 0-11.897-5.327-11.897-11.897 0-41.614 33.735-75.35 75.35-75.35h19.829c13.141 0 23.794 10.654 23.794 23.795z" fill="#232e7a"/><path d="m498.533 104.594v22.483h-44.954c-28.614 0-51.811-23.197-51.811-51.811v-3.435c0-17.674 14.327-32.001 32.001-32.001 35.768 0 64.764 28.996 64.764 64.764z" fill="#2b3894"/><path d="m418.676 453.677c-.084.069-.168.138-.252.207-11.564 9.503-23.977 18.012-37.106 25.397-1.257.707-2.799 1.134-4.5 1.354-11.638 1.504-21.847-7.885-21.847-19.62v-103.923h87.247v46.246c.001 19.439-8.539 37.978-23.542 50.339z" fill="#ffc14f"/><path d="m508.084 300.849c-10.834 61.313-43.491 115.095-89.66 153.035v-137.054c19.707-4.395 38.022-15.24 53.973-31.07 13.797.591 26.29 6.218 35.687 15.089zm-236.394 40.38v109.162c24.7 19.8 107.076-4.188 107.076-4.188v-129.373c-19.707-4.395-38.022-15.24-53.973-31.07-29.541 1.266-53.103 25.616-53.103 55.469z" fill="#ffde91"/><path d="m329.352 290.09c-19.905 8.438-33.867 28.158-33.867 51.139v125.604c-8.332-4.921-16.282-10.42-23.795-16.442v-109.162c0-29.853 23.561-54.203 53.103-55.469 1.5 1.488 3.019 2.931 4.559 4.33z" fill="#ffcd71"/><path d="m151.304 489.681c-8.168-3.665-16.108-7.745-23.795-12.215v-30.44c0-30.663 24.858-55.521 55.521-55.521h35.489c-30.663 0-55.521 24.858-55.521 55.521v39.115c0 .001-7.846 5.267-11.694 3.54z" fill="#d3d3d8"/><path d="m381.318 447.027v32.254c-37.042 20.835-79.792 32.719-125.318 32.719-37.3 0-72.736-7.977-104.696-22.318v-42.655c0-30.663 24.857-55.521 55.521-55.521h118.973c30.663 0 55.52 24.858 55.52 55.521z" fill="#ececf1"/><path d="m267.546 458.875v52.87c-3.827.169-7.677.255-11.546.255-5.568 0-11.094-.178-16.574-.528v-52.597c0-3.106 2.518-5.624 5.624-5.624h16.872c3.106-.001 5.624 2.518 5.624 5.624z" fill="#232e7a"/><path d="m261.922 455.225h-16.872c-3.106 0-5.624-2.518-5.624-5.624v-32.787c0-3.106 2.518-5.624 5.624-5.624h16.872c3.106 0 5.624 2.518 5.624 5.624v32.787c0 3.106-2.518 5.624-5.624 5.624z" fill="#3342ae"/><path d="m311.183 389.59-31.879 54.628c-1.544 2.645-5.366 2.645-6.909 0l-17.98-30.811-17.98 30.811c-1.544 2.645-5.366 2.645-6.91 0l-31.879-54.628c-1.556-2.667.367-6.016 3.455-6.016h106.628c3.086 0 5.01 3.35 3.454 6.016z" fill="#d3d3d8"/><path d="m273.449 222.171v82.088h-118.973v-84.119c0-1.728.834-3.128 1.862-3.128h114.04c1.696 0 3.071 2.31 3.071 5.159z" fill="#7c3f2c"/><path d="m354.351 224.554v79.705h-150.303v-87.247h142.761c4.165 0 7.542 3.377 7.542 7.542z" fill="#954c35"/><path d="m167.167 320.122c-10.951 0-19.829-8.878-19.829-19.829v-7.932c0-10.951 8.878-19.829 19.829-19.829 10.951 0 19.829 8.878 19.829 19.829v7.932c-.001 10.951-8.878 19.829-19.829 19.829z" fill="#ffbeaa"/><path d="m159.235 288.396v15.863c0 6.487 3.115 12.246 7.93 15.863-10.95-.001-19.827-8.878-19.827-19.829v-7.932c0-10.951 8.877-19.828 19.827-19.829-4.815 3.618-7.93 9.377-7.93 15.864zm182.426-15.863v-15.863c0-48.185-39.062-87.247-87.247-87.247-48.185 0-87.247 39.062-87.247 87.247v31.726c0 39.936 26.832 73.605 63.452 83.963v27.079c0 13.141 10.653 23.795 23.795 23.795 13.141 0 23.795-10.653 23.795-23.795v-27.079c26.639-7.534 48.098-27.404 57.817-53.049 1.786.529 3.678.813 5.635.813 10.951 0 19.829-8.878 19.829-19.829v-7.932c0-10.952-8.878-19.829-19.829-19.829z" fill="#faa68e"/><path d="m341.661 256.67v31.726c0 40.286-27.304 74.194-64.417 84.229-7.156 1.935-14.709 1.935-21.866 0-37.112-10.035-64.417-43.943-64.417-84.229v-31.726c0-44.15 32.793-80.64 75.35-86.442 42.557 5.802 75.35 42.292 75.35 86.442z" fill="#ffbeaa"/><path d="m242.913 293.735c-2.323-2.324-2.323-6.09 0-8.413 2.323-2.322 6.09-2.322 8.413 0 .826.826 1.923 1.282 3.088 1.282s2.261-.456 3.088-1.282c2.323-2.322 6.09-2.322 8.413 0 2.323 2.324 2.323 6.09 0 8.413-3.073 3.073-7.158 4.766-11.5 4.766-4.344 0-8.428-1.693-11.502-4.766zm35.536 21.891c-2.323-2.322-6.09-2.322-8.413 0-8.615 8.615-22.63 8.615-31.245 0-2.323-2.322-6.09-2.322-8.413 0-2.323 2.324-2.323 6.09 0 8.413 6.626 6.626 15.331 9.939 24.035 9.939s17.409-3.313 24.035-9.939c2.324-2.323 2.324-6.089.001-8.413z" fill="#e09380"/><path d="m228.636 262.618c0 6.571-5.327 11.897-11.897 11.897-6.571 0-11.897-5.327-11.897-11.897 0-6.571 5.327-11.897 11.897-11.897s11.897 5.327 11.897 11.897zm63.452-11.897c-6.571 0-11.897 5.327-11.897 11.897 0 6.571 5.327 11.897 11.897 11.897 6.571 0 11.897-5.327 11.897-11.897.001-6.57-5.326-11.897-11.897-11.897z" fill="#232e7a"/><path d="m230.619 256.67c0 3.285-2.663 5.949-5.949 5.949-3.285 0-5.949-2.663-5.949-5.949 0-3.285 2.663-5.949 5.949-5.949s5.949 2.663 5.949 5.949zm69.401-5.949c-3.285 0-5.949 2.663-5.949 5.949 0 3.285 2.663 5.949 5.949 5.949 3.285 0 5.949-2.663 5.949-5.949s-2.664-5.949-5.949-5.949z" fill="#fff5f5"/><path d="m273.449 169.423c0 35.044-28.409 63.452-63.452 63.452h-43.624c-6.571 0-11.897-5.327-11.897-11.897 0-41.614 33.735-75.35 75.35-75.35h19.829c13.141 0 23.794 10.653 23.794 23.795z" fill="#7c3f2c"/><path d="m354.351 210.392v22.483h-44.954c-28.614 0-51.811-23.197-51.811-51.811v-3.435c0-17.674 14.327-32.001 32.001-32.001 35.768 0 64.764 28.996 64.764 64.764z" fill="#954c35"/><path d="m163.7 363.761h-11.723c-2.761 0-5-2.239-5-5v-5c0-2.761 2.239-5 5-5h11.723c2.761 0 5 2.239 5 5v5c0 2.762-2.238 5-5 5zm152.376 96.989h-11.723c-2.761 0-5-2.239-5-5v-5c0-2.761 2.239-5 5-5h11.723c2.761 0 5 2.239 5 5v5c0 2.762-2.239 5-5 5zm146.478-111.989h-11.724c-2.761 0-5-2.239-5-5v-5c0-2.761 2.239-5 5-5h11.723c2.761 0 5 2.239 5 5v5c.001 2.762-2.238 5-4.999 5z" fill="#ff9f22"/><path d="m173.227 363.761h-11.25c-4.142 0-7.5-3.358-7.5-7.5 0-4.142 3.358-7.5 7.5-7.5h11.25c2.071 0 3.75 1.679 3.75 3.75v7.5c0 2.071-1.679 3.75-3.75 3.75zm152.375 96.989h-11.25c-4.142 0-7.5-3.358-7.5-7.5 0-4.142 3.358-7.5 7.5-7.5h11.25c2.071 0 3.75 1.679 3.75 3.75v7.5c0 2.072-1.679 3.75-3.75 3.75zm146.478-111.989h-11.25c-4.142 0-7.5-3.358-7.5-7.5 0-4.142 3.358-7.5 7.5-7.5h11.25c2.071 0 3.75 1.679 3.75 3.75v7.5c0 2.071-1.679 3.75-3.75 3.75z" fill="#ffc14f"/></g></svg>