<svg id="Capa_1" enable-background="new 0 0 512.026 512.026" height="512" viewBox="0 0 512.026 512.026" width="512" xmlns="http://www.w3.org/2000/svg" xmlns:xlink="http://www.w3.org/1999/xlink"><linearGradient id="SVGID_1_" gradientUnits="userSpaceOnUse" x1="233.513" x2="233.513" y1="452.027" y2="60.027"><stop offset="0" stop-color="#addcff"/><stop offset=".5028" stop-color="#eaf6ff"/><stop offset="1" stop-color="#eaf6ff"/></linearGradient><linearGradient id="SVGID_2_" gradientUnits="userSpaceOnUse" x1="256.013" x2="256.013" y1="512.026" y2="0"><stop offset="0" stop-color="#5558ff"/><stop offset="1" stop-color="#00c0ff"/></linearGradient><g><g><g><path d="m106.013 60.027c-8.291 0-15 6.709-15 15v362c0 8.291 6.709 15 15 15h270v-392z" fill="url(#SVGID_1_)"/></g></g><g><g><path d="m176.619 215.421c-5.859-5.859-15.352-5.859-21.211 0s-5.859 15.352 0 21.211l4.395 4.395h-83.79c-8.291 0-15 6.709-15 15s6.709 15 15 15h83.789l-4.395 4.395c-5.859 5.859-5.859 15.352 0 21.211s15.351 5.859 21.211 0l30-30c5.859-5.859 5.859-15.352 0-21.211zm264.14-154.618-180-60c-4.614-1.597-9.595-.762-13.521 2.051-3.911 2.827-6.226 7.354-6.226 12.173v482c0 4.819 2.314 9.346 6.226 12.173 4.065 2.915 9.155 3.532 13.521 2.051l180-60c6.123-2.036 10.254-7.764 10.254-14.224v-362c0-6.46-4.131-12.188-10.254-14.224zm-94.746 210.224h-15v15c0 8.291-6.709 15-15 15s-15-6.709-15-15v-60c0-8.291 6.709-15 15-15s15 6.709 15 15v15h15c8.291 0 15 6.709 15 15s-6.709 15-15 15z" fill="url(#SVGID_2_)"/></g></g></g></svg>