<svg id="Capa_1" enable-background="new 0 0 512 512" height="512" viewBox="0 0 512 512" width="512" xmlns="http://www.w3.org/2000/svg"><g><g><g><path d="m70 496.97v-65h-15c-30.376 0-55-24.624-55-55v-160c0-30.376 24.624-55 55-55h320c30.376 0 55 24.624 55 55v160c0 30.376-24.624 55-55 55h-203.787l-75.607 75.606c-9.449 9.45-25.606 2.757-25.606-10.606z" fill="#f6f9f9"/></g></g><g><path d="m415 162h-200v270h160c30.327 0 55-24.673 55-55v-200c0-8.284-6.716-15-15-15z" fill="#f6e4e7"/></g><g><g><path d="m152 335v-65h-35c-30.376 0-55-24.624-55-55v-160c0-30.376 24.624-55 55-55h340c30.376 0 55 24.624 55 55v160c0 30.376-24.624 55-55 55h-203.787l-75.607 75.606c-9.449 9.45-25.606 2.757-25.606-10.606z" fill="#f17ab4"/></g></g><g><path d="m457 0h-170v270h170c30.376 0 55-24.624 55-55v-160c0-30.376-24.624-55-55-55z" fill="#ff3c7d"/></g><g><g><g><g><path d="m267.189 77.132c-.043-.114-.088-.229-.134-.341-2.321-5.646-7.763-9.291-13.865-9.291-.005 0-.009 0-.014 0-6.109.006-11.551 3.662-13.864 9.316-.039.095-.076.189-.112.284l-41.305 108.45c-2.457 6.451.781 13.674 7.232 16.131 6.453 2.456 13.674-.781 16.131-7.232l7.221-18.959h49.109l7.141 18.923c1.889 5.006 6.646 8.091 11.697 8.09 1.466 0 2.958-.26 4.412-.808 6.459-2.438 9.719-9.65 7.281-16.108zm-29.189 73.358 15.146-39.767 15.008 39.767z" fill="#f6f9f9"/></g></g><g><path d="m287 129.627v68.577c2.37 2.721 5.819 4.3 9.426 4.299 1.466 0 2.958-.26 4.412-.808 6.459-2.438 9.719-9.65 7.281-16.108z" fill="#f6e4e7"/></g><g><path d="m181.042 121.458h-28.542v-28.958h32.083c6.903 0 12.5-5.597 12.5-12.5s-5.597-12.5-12.5-12.5h-44.583c-6.903 0-12.5 5.597-12.5 12.5v110c0 6.903 5.597 12.5 12.5 12.5s12.5-5.597 12.5-12.5v-43.542h28.542c6.904 0 12.5-5.597 12.5-12.5s-5.596-12.5-12.5-12.5z" fill="#f6f9f9"/></g><g><g><path d="m447.839 180.717-8.188-8.188c7.21-10.739 11.425-23.65 11.425-37.528 0-37.22-30.28-67.5-67.5-67.5s-67.5 30.28-67.5 67.5 30.28 67.5 67.5 67.5c14.326 0 27.613-4.499 38.552-12.14l8.034 8.034c2.441 2.44 5.64 3.661 8.839 3.661s6.398-1.221 8.839-3.661c4.88-4.882 4.88-12.796-.001-17.678zm-64.264-3.217c-23.435 0-42.5-19.065-42.5-42.5s19.065-42.5 42.5-42.5 42.5 19.065 42.5 42.5c0 6.947-1.686 13.503-4.654 19.299l-8.773-8.773c-4.882-4.881-12.796-4.881-17.678 0-4.881 4.882-4.881 12.796 0 17.678l9.044 9.044c-6.068 3.344-13.034 5.252-20.439 5.252z" fill="#f6e4e7"/></g></g></g></g></g></svg>