<svg id="Capa_1" enable-background="new 0 0 512 512" height="512" viewBox="0 0 512 512" width="512" xmlns="http://www.w3.org/2000/svg"><g><g><circle cx="256" cy="267" fill="#ffb332" r="245"/></g><g><circle cx="256" cy="312" fill="#ffdd40" r="180"/></g><g><path d="m386 0h-260c-44.183 0-80 35.817-80 80v191.169c0 44.183 35.817 80 80 80h42.559c13.765 0 26.563 7.078 33.88 18.737l19.681 31.358c15.679 24.982 52.081 24.982 67.76 0l19.681-31.358c7.317-11.659 20.115-18.737 33.88-18.737h42.559c44.183 0 80-35.817 80-80v-191.169c0-44.183-35.817-80-80-80z" fill="#ff4155"/></g><g><path d="m206.404 271.169v-191.169c0-44.183 35.817-80 80-80h-159.882c-44.183 0-80 35.817-80 80v191.169c0 44.183 35.817 80 80 80h42.559c13.765 0 26.563 7.078 33.88 18.737l19.681 31.358c15.679 24.982 52.081 24.982 67.76 0l19.681-31.358c7.317-11.659 20.115-18.737 33.88-18.737h-57.559c-44.183 0-80-35.818-80-80z" fill="#e80054"/></g><g><g><path d="m159.41 210.99c0-41.093 19.244-71.96 25.46-80.858.684-.979 2.2-.641 2.413.535 4.46 24.579 19.625 37.385 19.625 37.385-16.36-75.057 36.47-112.914 53.208-122.831 1.833-1.086 4.149.335 3.963 2.458-1.054 12.017 2.422 44.474 55.817 91.22 5.767 5.049 11.045 10.659 15.427 16.948 11.512 16.518 17.267 35.831 17.267 55.143 0 35.729-19.7 71.458-59.101 89.495-23.754 10.874-51.225 10.874-74.979 0-39.4-18.037-59.1-53.766-59.1-89.495z" fill="#fff"/></g><g><path d="m292.938 300.736c13.943-6.295 25.436-14.8 34.491-24.732-80.201-.956-107.194-61.345-120.521-107.952 0 0-15.069-12.725-19.582-37.151-.233-1.261-1.856-1.631-2.588-.578-6.352 9.14-25.328 39.862-25.328 80.668 0 35.731 19.703 71.462 59.108 89.498 23.562 10.784 50.801 10.91 74.42.247z" fill="#d3dcfb"/></g><g><g><path d="m297.325 191.446c-22.837-10.151-41.325 10.512-41.325 10.512s-18.488-20.663-41.325-10.512c-22.838 10.15-22.838 43.862-2.537 66.338 14.048 15.553 29.658 25.03 37.941 29.392 3.71 1.954 8.134 1.954 11.843 0 8.283-4.362 23.893-13.84 37.941-29.392 20.3-22.476 20.3-56.188-2.538-66.338z" fill="#ff4155"/></g></g><path d="m214.628 191.469c-22.789 10.176-22.777 43.855-2.491 66.314 14.048 15.553 29.658 25.03 37.941 29.392 3.71 1.954 8.134 1.954 11.843 0 5.91-3.113 15.552-8.845 25.693-17.514-40.064-13.457-60.767-46.231-72.986-78.192z" fill="#e80054"/></g><g><path d="m278.921 56.814c.206 8.311 3.548 35.509 37.107 52.818 1.191.615 2.581-.379 2.377-1.704-1.49-9.678-8.35-39.662-37.165-52.636-1.098-.494-2.349.318-2.319 1.522z" fill="#fff"/></g></g></svg>