<svg id="Capa_1" enable-background="new 0 0 512 512" height="512" viewBox="0 0 512 512" width="512" xmlns="http://www.w3.org/2000/svg"><g><g><path d="m368.529 503.675h-227.338c-22.091 0-40-17.909-40-40v-415.35c0-22.091 17.909-40 40-40h227.338c22.091 0 40 17.909 40 40v415.35c0 22.091-17.908 40-40 40z" fill="#9dc6fb"/></g><g><path d="m368.519 8.325h-9.25v426.235c0 10.965-8.889 19.854-19.854 19.854h-238.224v9.25c0 22.097 17.913 40.011 40.011 40.011h227.317c22.097 0 40.011-17.913 40.011-40.011v-415.328c-.001-22.097-17.914-40.011-40.011-40.011z" fill="#89aada"/></g><g><path d="m186.746 8.325v30.345c0 10.417 8.444 18.861 18.861 18.861h98.507c10.417 0 18.861-8.444 18.861-18.861v-30.345z" fill="#26457d"/></g><g><path d="m294.775 8.325v30.345c0 10.417-8.444 18.861-18.861 18.861h28.199c10.417 0 18.861-8.444 18.861-18.861v-30.345z" fill="#21386b"/></g><g><path d="m368.822 511.12h-227.923c-26 0-47.153-21.153-47.153-47.153v-415.934c0-26 21.153-47.153 47.153-47.153h227.923c26 0 47.153 21.153 47.153 47.153v415.935c-.001 25.999-21.153 47.152-47.153 47.152zm-227.923-495.35c-17.789 0-32.262 14.472-32.262 32.262v415.935c0 17.79 14.473 32.262 32.262 32.262h227.923c17.789 0 32.262-14.472 32.262-32.262v-415.934c0-17.79-14.473-32.262-32.262-32.262h-227.923z" fill="#335995"/></g><g><g><path d="m108.636 365.411c4.144.874 8.438 1.341 12.842 1.341h328.57c34.215 0 61.951-27.737 61.951-61.951 0-22.12-11.597-41.525-29.039-52.485-1.758-1.105-2.631-3.167-2.206-5.2.845-4.04 1.294-8.225 1.294-12.516 0-33.759-27.367-61.125-61.125-61.125-.139 0-.278.001-.417.002-2.113.019-4.001-1.299-4.686-3.298-12.769-37.269-48.104-64.063-89.702-64.063-37.085 0-69.19 21.296-84.769 52.323-1.188 2.367-4.069 3.333-6.455 2.184-9.877-4.757-20.943-7.433-32.64-7.433-41.638 0-75.392 33.754-75.392 75.392 0 2.968.178 5.894.516 8.77.344 2.923-1.91 5.497-4.852 5.497h-1.048c-4.404 0-8.698.467-12.842 1.341z" fill="#f6f1f1"/></g><g><path d="m414.333 256.14c-29.096-.52-53.869 18.311-62.311 44.479-.653 2.025-2.896 3.054-4.865 2.248-6.982-2.857-14.66-4.362-22.714-4.174-30.03.704-54.507 25.225-55.151 55.257-.001.044-.002.088-.003.132-.134 6.982 5.602 12.67 12.585 12.67h170.31c3.634 0 7.101-1.561 9.484-4.305 10.263-11.817 16.281-27.418 15.676-44.433-1.176-33.033-29.963-61.283-63.011-61.874z" fill="#e7ecf6"/></g><g><g><path d="m482.961 252.316c-1.758-1.105-2.631-3.167-2.206-5.2.845-4.04 1.294-8.225 1.294-12.516 0-33.758-27.367-61.125-61.125-61.125-.139 0-.278.001-.417.002-2.113.019-4.001-1.299-4.686-3.298-12.769-37.269-48.104-64.063-89.702-64.063-5.497 0-10.881.479-16.122 1.377 34.421 5.896 62.507 30.339 73.59 62.686.685 1.999 2.573 3.316 4.686 3.298.139-.001.278-.002.417-.002 33.759 0 61.125 27.367 61.125 61.125 0 4.291-.45 8.476-1.294 12.516-.425 2.032.449 4.095 2.206 5.2 17.442 10.96 29.039 30.365 29.039 52.485 0 34.215-27.736 61.951-61.951 61.951h32.234c34.215 0 61.951-27.736 61.951-61.951 0-22.12-11.597-41.525-29.039-52.485z" fill="#e7ecf6"/></g></g><g><g><path d="m477.343 318.014c-1.175-33.032-29.962-61.282-63.01-61.874-6.861-.123-13.477.843-19.701 2.715 25.493 7.864 45.312 31.871 46.283 59.159.605 17.015-5.413 32.617-15.676 44.433-2.383 2.744-5.85 4.305-9.484 4.305h36.428c3.634 0 7.101-1.561 9.484-4.305 10.263-11.817 16.281-27.418 15.676-44.433z" fill="#d5dff4"/></g></g></g><g><g><path d="m337.854 168.501h6.652c.95 0 1.719-.77 1.719-1.719v-23.633c0-.95-.77-1.719-1.719-1.719h-6.652c-22.886 0-41.44 18.553-41.44 41.44v6.032c0 .633-.513 1.146-1.146 1.146h-11.58c-.95 0-1.719.77-1.719 1.719v23.633c0 .95.77 1.719 1.719 1.719h11.58c.633 0 1.146.513 1.146 1.146v46.596c0 .95.77 1.719 1.719 1.719h23.633c.95 0 1.719-.77 1.719-1.719v-46.596c0-.633.513-1.146 1.146-1.146h11.58c.95 0 1.719-.77 1.719-1.719v-23.633c0-.95-.77-1.719-1.719-1.719h-11.58c-.633 0-1.146-.513-1.146-1.146v-6.032c.001-7.937 6.434-14.369 14.369-14.369z" fill="#335995"/></g><g><g><path d="m315.104 218.264v46.596c0 .95-.77 1.719-1.719 1.719h8.382c.95 0 1.719-.77 1.719-1.719v-46.596c0-.633.513-1.146 1.146-1.146h-8.382c-.633 0-1.146.513-1.146 1.146z" fill="#26457d"/></g><g><path d="m336.212 190.047h-8.382c.95 0 1.719.77 1.719 1.719v23.633c0 .95-.77 1.719-1.719 1.719h8.382c.95 0 1.719-.77 1.719-1.719v-23.633c0-.949-.769-1.719-1.719-1.719z" fill="#26457d"/></g><g><path d="m344.506 141.429h-6.652c-.464 0-.923.02-1.384.035.783.16 1.373.854 1.373 1.684v23.633c0 .95-.77 1.719-1.719 1.719h-6.652c-7.935 0-14.368 6.433-14.368 14.368v6.032c0 .633.513 1.146 1.146 1.146h8.382c-.633 0-1.146-.513-1.146-1.146v-6.032c0-7.935 6.433-14.368 14.368-14.368h6.652c.95 0 1.719-.77 1.719-1.719v-23.633c0-.949-.77-1.719-1.719-1.719z" fill="#26457d"/></g></g></g><g><path d="m247.078 399.232h-55.766c-19.028 0-34.454-15.425-34.454-34.454v-55.766c0-19.028 15.425-34.454 34.454-34.454h55.766c19.028 0 34.453 15.425 34.453 34.454v55.766c0 19.028-15.425 34.454-34.453 34.454z" fill="#df73c1"/></g><path d="m255.118 275.513c.618 2.583.955 5.276.955 8.049v55.748c0 19.033-15.429 34.463-34.463 34.463h-55.748c-2.773 0-5.466-.337-8.049-.955 3.626 15.149 17.247 26.414 33.508 26.414h55.748c19.033 0 34.463-15.429 34.463-34.463v-55.748c-.001-16.26-11.265-29.881-26.414-33.508z" fill="#dd4fb1"/><g><path d="m219.195 365.297c-15.661 0-28.402-12.741-28.402-28.402s12.741-28.402 28.402-28.402c15.66 0 28.402 12.741 28.402 28.402s-12.741 28.402-28.402 28.402zm0-41.914c-7.45 0-13.512 6.062-13.512 13.512s6.061 13.512 13.512 13.512c7.45 0 13.511-6.062 13.511-13.512s-6.061-13.512-13.511-13.512z" fill="#f6f1f1"/></g><g><circle cx="253.144" cy="300.78" fill="#f6f1f1" r="8.298"/></g><g><path d="m129.302 138.098c-2.28 0-4.53-.128-6.747-.367-.866-.094-1.239-1.138-.632-1.763l.015-.015c19.341-19.921 22.852-49.343 10.785-72.726-.752-1.456-2.801-1.51-3.683-.129-2.247 3.515-4.875 6.858-7.894 9.968-10.379 10.69-23.628 16.895-37.345 18.601-.407.051-.764-.262-.786-.671-.958-18.068-15.902-32.427-34.209-32.427-12.873 0-24.083 7.1-29.94 17.595-.577 1.034-1.513 1.819-2.627 2.221l-14.27 5.148c-2.176.785-2.665 3.643-.874 5.107l12.989 10.614c.784.64 1.367 1.501 1.629 2.478 2.612 9.743 9.408 17.769 18.348 22.038.564.269.982.763 1.145 1.366 7.05 26.098 30.455 45.479 58.542 46.464.745.026 22.768-11.052 22.768-11.052s20.553-22.586 14.013-22.461c-.408.007-.817.011-1.227.011z" fill="#e7ecf6"/></g><g><g><path d="m130.529 138.082c-11.252 17.125-30.63 28.433-52.653 28.433-2.68 0-5.319-.172-7.911-.497 7.933 3.607 16.744 5.62 26.027 5.62 24.252 0 45.299-13.713 55.816-33.808.872-1.666-.723-3.579-2.507-2.982-5.914 1.982-12.22 3.109-18.772 3.234z" fill="#d5dff4"/></g></g></g></svg>