<svg xmlns="http://www.w3.org/2000/svg" height="511pt" version="1.1" viewBox="-38 0 511 511.99956" width="511pt">
<g id="surface1">
<path d="M 413.476562 341.910156 C 399.714844 379.207031 378.902344 411.636719 351.609375 438.289062 C 320.542969 468.625 279.863281 492.730469 230.699219 509.925781 C 229.085938 510.488281 227.402344 510.949219 225.710938 511.289062 C 223.476562 511.730469 221.203125 511.96875 218.949219 512 L 218.507812 512 C 216.105469 512 213.691406 511.757812 211.296875 511.289062 C 209.605469 510.949219 207.945312 510.488281 206.339844 509.9375 C 157.117188 492.769531 116.386719 468.675781 85.289062 438.339844 C 57.984375 411.6875 37.175781 379.277344 23.433594 341.980469 C -1.554688 274.167969 -0.132812 199.464844 1.011719 139.433594 L 1.03125 138.511719 C 1.261719 133.554688 1.410156 128.347656 1.492188 122.597656 C 1.910156 94.367188 24.355469 71.011719 52.589844 69.4375 C 111.457031 66.152344 156.996094 46.953125 195.90625 9.027344 L 196.246094 8.714844 C 202.707031 2.789062 210.847656 -0.117188 218.949219 0.00390625 C 226.761719 0.105469 234.542969 3.007812 240.773438 8.714844 L 241.105469 9.027344 C 280.023438 46.953125 325.5625 66.152344 384.429688 69.4375 C 412.664062 71.011719 435.109375 94.367188 435.527344 122.597656 C 435.609375 128.386719 435.757812 133.585938 435.988281 138.511719 L 436 138.902344 C 437.140625 199.046875 438.554688 273.898438 413.476562 341.910156 Z M 413.476562 341.910156 " style=" stroke:none;fill-rule:nonzero;fill:rgb(100%,89.411765%,46.666667%);fill-opacity:1;" />
<path d="M 413.476562 341.910156 C 399.714844 379.207031 378.902344 411.636719 351.609375 438.289062 C 320.542969 468.625 279.863281 492.730469 230.699219 509.925781 C 229.085938 510.488281 227.402344 510.949219 225.710938 511.289062 C 223.476562 511.730469 221.203125 511.96875 218.949219 512 L 218.949219 0.00390625 C 226.761719 0.105469 234.542969 3.007812 240.773438 8.714844 L 241.105469 9.027344 C 280.023438 46.953125 325.5625 66.152344 384.429688 69.4375 C 412.664062 71.011719 435.109375 94.367188 435.527344 122.597656 C 435.609375 128.386719 435.757812 133.585938 435.988281 138.511719 L 436 138.902344 C 437.140625 199.046875 438.554688 273.898438 413.476562 341.910156 Z M 413.476562 341.910156 " style=" stroke:none;fill-rule:nonzero;fill:rgb(100%,80.392157%,0%);fill-opacity:1;" />
<path d="M 346.101562 256 C 346.101562 326.207031 289.097656 383.355469 218.949219 383.605469 L 218.5 383.605469 C 148.144531 383.605469 90.894531 326.359375 90.894531 256 C 90.894531 185.644531 148.144531 128.398438 218.5 128.398438 L 218.949219 128.398438 C 289.097656 128.648438 346.101562 185.796875 346.101562 256 Z M 346.101562 256 " style=" stroke:none;fill-rule:nonzero;fill:rgb(100%,100%,100%);fill-opacity:1;" />
<path d="M 346.101562 256 C 346.101562 326.207031 289.097656 383.355469 218.949219 383.605469 L 218.949219 128.398438 C 289.097656 128.648438 346.101562 185.796875 346.101562 256 Z M 346.101562 256 " style=" stroke:none;fill-rule:nonzero;fill:rgb(88.235294%,92.156863%,94.117647%);fill-opacity:1;" />
<path d="M 233.976562 203.601562 L 233.976562 262.589844 C 233.976562 270.882812 227.246094 277.613281 218.953125 277.613281 C 210.652344 277.613281 203.929688 270.882812 203.929688 262.589844 L 203.929688 203.601562 C 203.929688 195.296875 210.652344 188.578125 218.953125 188.578125 C 227.246094 188.578125 233.976562 195.296875 233.976562 203.601562 Z M 233.976562 203.601562 " style=" stroke:none;fill-rule:nonzero;fill:rgb(70.588235%,82.352941%,84.313725%);fill-opacity:1;" />
<path d="M 233.976562 308.398438 C 233.976562 308.890625 233.945312 309.390625 233.90625 309.882812 C 233.855469 310.363281 233.777344 310.851562 233.6875 311.34375 C 233.585938 311.8125 233.464844 312.292969 233.324219 312.765625 C 233.175781 313.234375 233.015625 313.695312 232.824219 314.148438 C 232.636719 314.597656 232.425781 315.050781 232.195312 315.480469 C 231.964844 315.910156 231.714844 316.332031 231.441406 316.742188 C 231.171875 317.152344 230.882812 317.554688 230.570312 317.921875 C 230.261719 318.3125 229.921875 318.675781 229.582031 319.023438 C 229.230469 319.375 228.859375 319.707031 228.480469 320.015625 C 228.097656 320.328125 227.699219 320.617188 227.296875 320.886719 C 226.886719 321.160156 226.464844 321.417969 226.023438 321.648438 C 225.59375 321.878906 225.152344 322.089844 224.703125 322.269531 C 224.253906 322.460938 223.78125 322.628906 223.3125 322.769531 C 222.851562 322.910156 222.371094 323.03125 221.890625 323.132812 C 221.40625 323.230469 220.917969 323.300781 220.4375 323.351562 C 219.945312 323.402344 219.445312 323.421875 218.953125 323.421875 C 218.464844 323.421875 217.972656 323.402344 217.480469 323.351562 C 216.992188 323.300781 216.5 323.230469 216.019531 323.132812 C 215.539062 323.03125 215.058594 322.910156 214.597656 322.769531 C 214.125 322.628906 213.65625 322.460938 213.207031 322.269531 C 212.753906 322.089844 212.3125 321.878906 211.882812 321.648438 C 211.441406 321.417969 211.023438 321.160156 210.613281 320.886719 C 210.210938 320.617188 209.808594 320.328125 209.429688 320.015625 C 209.050781 319.707031 208.679688 319.375 208.328125 319.023438 C 207.988281 318.675781 207.648438 318.3125 207.335938 317.921875 C 207.027344 317.554688 206.734375 317.152344 206.464844 316.742188 C 206.195312 316.332031 205.945312 315.910156 205.714844 315.480469 C 205.484375 315.050781 205.273438 314.597656 205.082031 314.148438 C 204.894531 313.695312 204.734375 313.234375 204.582031 312.765625 C 204.441406 312.292969 204.320312 311.8125 204.222656 311.34375 C 204.132812 310.851562 204.050781 310.363281 204 309.882812 C 203.960938 309.390625 203.929688 308.890625 203.929688 308.398438 C 203.929688 307.910156 203.960938 307.417969 204 306.925781 C 204.050781 306.4375 204.132812 305.945312 204.222656 305.464844 C 204.320312 304.992188 204.441406 304.511719 204.582031 304.042969 C 204.734375 303.570312 204.894531 303.109375 205.082031 302.660156 C 205.273438 302.210938 205.484375 301.757812 205.714844 301.328125 C 205.945312 300.898438 206.195312 300.46875 206.464844 300.066406 C 206.734375 299.65625 207.027344 299.253906 207.335938 298.875 C 207.648438 298.492188 207.988281 298.125 208.328125 297.78125 C 208.679688 297.433594 209.050781 297.101562 209.429688 296.78125 C 209.808594 296.480469 210.210938 296.179688 210.613281 295.910156 C 211.023438 295.640625 211.441406 295.390625 211.882812 295.160156 C 212.3125 294.929688 212.753906 294.71875 213.207031 294.527344 C 213.65625 294.347656 214.125 294.175781 214.597656 294.039062 C 215.058594 293.886719 215.539062 293.765625 216.019531 293.675781 C 216.5 293.578125 216.992188 293.507812 217.480469 293.457031 C 217.960938 293.40625 218.464844 293.375 218.953125 293.375 C 219.445312 293.375 219.945312 293.40625 220.4375 293.457031 C 220.917969 293.507812 221.40625 293.578125 221.890625 293.675781 C 222.371094 293.765625 222.851562 293.886719 223.3125 294.039062 C 223.78125 294.175781 224.253906 294.347656 224.703125 294.527344 C 225.152344 294.71875 225.59375 294.929688 226.023438 295.160156 C 226.464844 295.390625 226.886719 295.640625 227.296875 295.910156 C 227.699219 296.179688 228.097656 296.480469 228.480469 296.78125 C 228.859375 297.101562 229.230469 297.433594 229.582031 297.78125 C 229.921875 298.125 230.261719 298.492188 230.570312 298.875 C 230.882812 299.253906 231.171875 299.65625 231.441406 300.066406 C 231.714844 300.46875 231.964844 300.898438 232.195312 301.328125 C 232.425781 301.757812 232.636719 302.210938 232.824219 302.660156 C 233.015625 303.109375 233.175781 303.570312 233.324219 304.042969 C 233.464844 304.511719 233.585938 304.992188 233.6875 305.464844 C 233.777344 305.945312 233.855469 306.4375 233.90625 306.925781 C 233.945312 307.417969 233.976562 307.910156 233.976562 308.398438 Z M 233.976562 308.398438 " style=" stroke:none;fill-rule:nonzero;fill:rgb(70.588235%,82.352941%,84.313725%);fill-opacity:1;" />
<path d="M 233.90625 306.925781 C 233.945312 307.417969 233.976562 307.910156 233.976562 308.398438 C 233.976562 308.890625 233.945312 309.390625 233.90625 309.882812 C 233.855469 310.363281 233.777344 310.851562 233.6875 311.34375 C 233.585938 311.8125 233.464844 312.292969 233.324219 312.765625 C 233.175781 313.234375 233.015625 313.695312 232.824219 314.148438 C 232.636719 314.597656 232.425781 315.050781 232.195312 315.480469 C 231.964844 315.910156 231.714844 316.332031 231.441406 316.742188 C 231.171875 317.152344 230.882812 317.554688 230.570312 317.921875 C 230.261719 318.3125 229.921875 318.675781 229.582031 319.023438 C 229.230469 319.375 228.859375 319.707031 228.480469 320.015625 C 228.097656 320.328125 227.699219 320.617188 227.296875 320.886719 C 226.886719 321.160156 226.464844 321.417969 226.023438 321.648438 C 225.59375 321.878906 225.152344 322.089844 224.703125 322.269531 C 224.253906 322.460938 223.78125 322.628906 223.3125 322.769531 C 222.851562 322.910156 222.371094 323.03125 221.890625 323.132812 C 221.40625 323.230469 220.917969 323.300781 220.4375 323.351562 C 219.945312 323.402344 219.445312 323.421875 218.953125 323.421875 L 218.953125 293.375 C 219.445312 293.375 219.945312 293.40625 220.4375 293.457031 C 220.917969 293.507812 221.40625 293.578125 221.890625 293.675781 C 222.371094 293.765625 222.851562 293.886719 223.3125 294.039062 C 223.78125 294.175781 224.253906 294.347656 224.703125 294.527344 C 225.152344 294.71875 225.59375 294.929688 226.023438 295.160156 C 226.464844 295.390625 226.886719 295.640625 227.296875 295.910156 C 227.699219 296.179688 228.097656 296.480469 228.480469 296.78125 C 228.859375 297.101562 229.230469 297.433594 229.582031 297.78125 C 229.921875 298.125 230.261719 298.492188 230.570312 298.875 C 230.882812 299.253906 231.171875 299.65625 231.441406 300.066406 C 231.714844 300.46875 231.964844 300.898438 232.195312 301.328125 C 232.425781 301.757812 232.636719 302.210938 232.824219 302.660156 C 233.015625 303.109375 233.175781 303.570312 233.324219 304.042969 C 233.464844 304.511719 233.585938 304.992188 233.6875 305.464844 C 233.777344 305.945312 233.855469 306.4375 233.90625 306.925781 Z M 233.90625 306.925781 " style=" stroke:none;fill-rule:nonzero;fill:rgb(43.529412%,64.705882%,66.666667%);fill-opacity:1;" />
<path d="M 233.976562 203.601562 L 233.976562 262.589844 C 233.976562 270.882812 227.246094 277.613281 218.953125 277.613281 L 218.953125 188.578125 C 227.246094 188.578125 233.976562 195.296875 233.976562 203.601562 Z M 233.976562 203.601562 " style=" stroke:none;fill-rule:nonzero;fill:rgb(43.529412%,64.705882%,66.666667%);fill-opacity:1;" />
</g>
</svg>